<mxfile host="app.diagrams.net" modified="2023-04-29T04:06:43.962Z" agent="Mozilla/5.0 (Windows NT 10.0; Win64; x64) AppleWebKit/537.36 (KHTML, like Gecko) Chrome/112.0.0.0 Safari/537.36" etag="B4pBLzOsd23bpNgnKSWT" version="21.2.3" type="device">
  <diagram name="Page-1" id="hhs7CBTfl_Uv-xu_8Mox">
    <mxGraphModel dx="1744" dy="1016" grid="1" gridSize="10" guides="1" tooltips="1" connect="1" arrows="1" fold="1" page="1" pageScale="1" pageWidth="827" pageHeight="1169" background="none" math="0" shadow="0">
      <root>
        <mxCell id="0" />
        <mxCell id="1" parent="0" />
        <mxCell id="tAtHUdhInMRuZMIGd15e-1" value="" style="swimlane;startSize=30;spacingBottom=0;" parent="1" vertex="1">
          <mxGeometry x="80" y="40" width="680" height="1080" as="geometry" />
        </mxCell>
        <mxCell id="tAtHUdhInMRuZMIGd15e-2" value="Online Teacher Trainer" style="text;align=center;fontStyle=1;verticalAlign=middle;spacingLeft=3;spacingRight=3;strokeColor=none;rotatable=0;points=[[0,0.5],[1,0.5]];portConstraint=eastwest;html=1;fontSize=16;" parent="tAtHUdhInMRuZMIGd15e-1" vertex="1">
          <mxGeometry x="250" y="2" width="180" height="26" as="geometry" />
        </mxCell>
        <mxCell id="tAtHUdhInMRuZMIGd15e-11" value="Sign Up" style="ellipse;whiteSpace=wrap;html=1;fillColor=#f5f5f5;strokeColor=#666666;gradientColor=#b3b3b3;verticalAlign=top;" parent="tAtHUdhInMRuZMIGd15e-1" vertex="1">
          <mxGeometry x="40" y="40" width="140" height="60" as="geometry" />
        </mxCell>
        <mxCell id="tAtHUdhInMRuZMIGd15e-12" value="Check About Courses" style="ellipse;whiteSpace=wrap;html=1;fillColor=#f5f5f5;strokeColor=#666666;gradientColor=#b3b3b3;" parent="tAtHUdhInMRuZMIGd15e-1" vertex="1">
          <mxGeometry x="210" y="99" width="140" height="40" as="geometry" />
        </mxCell>
        <mxCell id="tAtHUdhInMRuZMIGd15e-13" value="Get Help" style="ellipse;whiteSpace=wrap;html=1;fillColor=#f5f5f5;strokeColor=#666666;gradientColor=#b3b3b3;" parent="tAtHUdhInMRuZMIGd15e-1" vertex="1">
          <mxGeometry x="30" y="170" width="140" height="40" as="geometry" />
        </mxCell>
        <mxCell id="tAtHUdhInMRuZMIGd15e-14" value="Enroll module" style="ellipse;whiteSpace=wrap;html=1;fillColor=#d5e8d4;strokeColor=#82b366;gradientColor=#97d077;" parent="tAtHUdhInMRuZMIGd15e-1" vertex="1">
          <mxGeometry x="521" y="190" width="140" height="40" as="geometry" />
        </mxCell>
        <mxCell id="tAtHUdhInMRuZMIGd15e-16" value="Select Course" style="ellipse;whiteSpace=wrap;html=1;fillColor=#d5e8d4;strokeColor=#82b366;gradientColor=#97d077;" parent="tAtHUdhInMRuZMIGd15e-1" vertex="1">
          <mxGeometry x="480" y="105" width="140" height="40" as="geometry" />
        </mxCell>
        <mxCell id="tAtHUdhInMRuZMIGd15e-17" value="Log in" style="ellipse;whiteSpace=wrap;html=1;fillColor=#d5e8d4;strokeColor=#82b366;gradientColor=#97d077;" parent="tAtHUdhInMRuZMIGd15e-1" vertex="1">
          <mxGeometry x="510" y="32" width="140" height="40" as="geometry" />
        </mxCell>
        <mxCell id="tAtHUdhInMRuZMIGd15e-18" value="Attending Lectures" style="ellipse;whiteSpace=wrap;html=1;fillColor=#d5e8d4;strokeColor=#82b366;gradientColor=#97d077;verticalAlign=middle;spacingBottom=26;" parent="tAtHUdhInMRuZMIGd15e-1" vertex="1">
          <mxGeometry x="505" y="290" width="140" height="70" as="geometry" />
        </mxCell>
        <mxCell id="tAtHUdhInMRuZMIGd15e-19" value="Give&amp;nbsp; Feedback" style="ellipse;whiteSpace=wrap;html=1;fillColor=#d5e8d4;strokeColor=#82b366;gradientColor=#97d077;" parent="tAtHUdhInMRuZMIGd15e-1" vertex="1">
          <mxGeometry x="521" y="406" width="140" height="40" as="geometry" />
        </mxCell>
        <mxCell id="tAtHUdhInMRuZMIGd15e-20" value="Log out" style="ellipse;whiteSpace=wrap;html=1;fillColor=#d5e8d4;strokeColor=#82b366;gradientColor=#97d077;" parent="tAtHUdhInMRuZMIGd15e-1" vertex="1">
          <mxGeometry x="530" y="545" width="140" height="40" as="geometry" />
        </mxCell>
        <mxCell id="tAtHUdhInMRuZMIGd15e-21" value="Log in" style="ellipse;whiteSpace=wrap;html=1;fillColor=#f8cecc;strokeColor=#b85450;gradientColor=#ea6b66;" parent="tAtHUdhInMRuZMIGd15e-1" vertex="1">
          <mxGeometry x="20" y="280" width="140" height="40" as="geometry" />
        </mxCell>
        <mxCell id="tAtHUdhInMRuZMIGd15e-22" value="Add lectures" style="ellipse;whiteSpace=wrap;html=1;fillColor=#f8cecc;strokeColor=#b85450;gradientColor=#ea6b66;" parent="tAtHUdhInMRuZMIGd15e-1" vertex="1">
          <mxGeometry x="100" y="340" width="140" height="40" as="geometry" />
        </mxCell>
        <mxCell id="tAtHUdhInMRuZMIGd15e-23" value="Check Feedback" style="ellipse;whiteSpace=wrap;html=1;fillColor=#f8cecc;strokeColor=#b85450;gradientColor=#ea6b66;" parent="tAtHUdhInMRuZMIGd15e-1" vertex="1">
          <mxGeometry x="113" y="462" width="140" height="40" as="geometry" />
        </mxCell>
        <mxCell id="tAtHUdhInMRuZMIGd15e-24" value="Receive Payments&amp;nbsp;" style="ellipse;whiteSpace=wrap;html=1;fillColor=#f8cecc;strokeColor=#b85450;gradientColor=#ea6b66;verticalAlign=middle;spacingBottom=24;" parent="tAtHUdhInMRuZMIGd15e-1" vertex="1">
          <mxGeometry x="53" y="507" width="140" height="70" as="geometry" />
        </mxCell>
        <mxCell id="tAtHUdhInMRuZMIGd15e-25" value="Log Out" style="ellipse;whiteSpace=wrap;html=1;fillColor=#f8cecc;strokeColor=#b85450;gradientColor=#ea6b66;" parent="tAtHUdhInMRuZMIGd15e-1" vertex="1">
          <mxGeometry x="32" y="653" width="88" height="34" as="geometry" />
        </mxCell>
        <mxCell id="tAtHUdhInMRuZMIGd15e-26" value="Create Time Table" style="ellipse;whiteSpace=wrap;html=1;fillColor=#fff2cc;strokeColor=#d6b656;gradientColor=#ffd966;" parent="tAtHUdhInMRuZMIGd15e-1" vertex="1">
          <mxGeometry x="109" y="684" width="140" height="40" as="geometry" />
        </mxCell>
        <mxCell id="tAtHUdhInMRuZMIGd15e-27" value="Give module Access" style="ellipse;whiteSpace=wrap;html=1;fillColor=#fff2cc;strokeColor=#d6b656;gradientColor=#ffd966;" parent="tAtHUdhInMRuZMIGd15e-1" vertex="1">
          <mxGeometry x="79" y="750" width="140" height="40" as="geometry" />
        </mxCell>
        <mxCell id="tAtHUdhInMRuZMIGd15e-28" value="Monitoring Activities" style="ellipse;whiteSpace=wrap;html=1;fillColor=#fff2cc;strokeColor=#d6b656;gradientColor=#ffd966;spacingBottom=35;" parent="tAtHUdhInMRuZMIGd15e-1" vertex="1">
          <mxGeometry x="10" y="920" width="140" height="70" as="geometry" />
        </mxCell>
        <mxCell id="tAtHUdhInMRuZMIGd15e-29" value="Generate Reports" style="ellipse;whiteSpace=wrap;html=1;fillColor=#fff2cc;strokeColor=#d6b656;gradientColor=#ffd966;" parent="tAtHUdhInMRuZMIGd15e-1" vertex="1">
          <mxGeometry x="150" y="840" width="140" height="40" as="geometry" />
        </mxCell>
        <mxCell id="tAtHUdhInMRuZMIGd15e-33" value="" style="line;strokeWidth=1;fillColor=none;align=left;verticalAlign=top;spacingTop=-1;spacingLeft=3;spacingRight=3;rotatable=0;labelPosition=right;points=[];portConstraint=eastwest;strokeColor=inherit;" parent="tAtHUdhInMRuZMIGd15e-1" vertex="1">
          <mxGeometry x="53" y="537" width="140" height="8" as="geometry" />
        </mxCell>
        <mxCell id="tAtHUdhInMRuZMIGd15e-37" value="Manage Pages" style="ellipse;whiteSpace=wrap;html=1;fillColor=#dae8fc;strokeColor=#6c8ebf;gradientColor=#7ea6e0;" parent="tAtHUdhInMRuZMIGd15e-1" vertex="1">
          <mxGeometry x="442.5" y="780" width="140" height="40" as="geometry" />
        </mxCell>
        <mxCell id="tAtHUdhInMRuZMIGd15e-38" value="Mange users" style="ellipse;whiteSpace=wrap;html=1;fillColor=#dae8fc;strokeColor=#6c8ebf;gradientColor=#7ea6e0;" parent="tAtHUdhInMRuZMIGd15e-1" vertex="1">
          <mxGeometry x="450" y="620" width="140" height="40" as="geometry" />
        </mxCell>
        <mxCell id="tAtHUdhInMRuZMIGd15e-39" value="Create terms &lt;br&gt;&amp;amp; conditions" style="ellipse;whiteSpace=wrap;html=1;fillColor=#dae8fc;strokeColor=#6c8ebf;gradientColor=#7ea6e0;" parent="tAtHUdhInMRuZMIGd15e-1" vertex="1">
          <mxGeometry x="266" y="473" width="140" height="40" as="geometry" />
        </mxCell>
        <mxCell id="tAtHUdhInMRuZMIGd15e-40" value="Check&amp;nbsp; UserFeedback&amp;nbsp;" style="ellipse;whiteSpace=wrap;html=1;fillColor=#dae8fc;strokeColor=#6c8ebf;gradientColor=#7ea6e0;verticalAlign=middle;spacingBottom=19;" parent="tAtHUdhInMRuZMIGd15e-1" vertex="1">
          <mxGeometry x="488" y="940" width="140" height="70" as="geometry" />
        </mxCell>
        <mxCell id="tAtHUdhInMRuZMIGd15e-41" value="Handle Payment" style="ellipse;whiteSpace=wrap;html=1;fillColor=#dae8fc;strokeColor=#6c8ebf;gradientColor=#7ea6e0;" parent="tAtHUdhInMRuZMIGd15e-1" vertex="1">
          <mxGeometry x="514" y="1038" width="140" height="40" as="geometry" />
        </mxCell>
        <mxCell id="tAtHUdhInMRuZMIGd15e-42" value="" style="line;strokeWidth=1;fillColor=none;align=left;verticalAlign=middle;spacingTop=-1;spacingLeft=3;spacingRight=3;rotatable=0;labelPosition=right;points=[];portConstraint=eastwest;strokeColor=inherit;" parent="tAtHUdhInMRuZMIGd15e-1" vertex="1">
          <mxGeometry x="40" y="64" width="140" height="8" as="geometry" />
        </mxCell>
        <mxCell id="tAtHUdhInMRuZMIGd15e-43" value="" style="line;strokeWidth=1;fillColor=none;align=left;verticalAlign=top;spacingTop=-1;spacingLeft=3;spacingRight=3;rotatable=0;labelPosition=right;points=[];portConstraint=eastwest;strokeColor=inherit;" parent="tAtHUdhInMRuZMIGd15e-1" vertex="1">
          <mxGeometry x="488" y="970" width="140" height="8" as="geometry" />
        </mxCell>
        <mxCell id="tAtHUdhInMRuZMIGd15e-83" value="Get Email" style="ellipse;whiteSpace=wrap;html=1;" parent="tAtHUdhInMRuZMIGd15e-1" vertex="1">
          <mxGeometry x="275" y="40" width="130" height="40" as="geometry" />
        </mxCell>
        <mxCell id="tAtHUdhInMRuZMIGd15e-84" value="&lt;font color=&quot;#808080&quot;&gt;&amp;lt;&amp;lt;extend&amp;gt;&amp;gt;&lt;/font&gt;" style="endArrow=open;endSize=12;dashed=1;html=1;rounded=0;entryX=1;entryY=0.5;entryDx=0;entryDy=0;labelBackgroundColor=none;exitX=0;exitY=0;exitDx=0;exitDy=0;fillColor=#647687;strokeColor=#314354;" parent="tAtHUdhInMRuZMIGd15e-1" source="tAtHUdhInMRuZMIGd15e-83" target="tAtHUdhInMRuZMIGd15e-11" edge="1">
          <mxGeometry x="-0.0113" width="160" relative="1" as="geometry">
            <mxPoint x="213" y="69" as="sourcePoint" />
            <mxPoint x="150" y="19" as="targetPoint" />
            <mxPoint as="offset" />
          </mxGeometry>
        </mxCell>
        <mxCell id="tAtHUdhInMRuZMIGd15e-85" value="Validate" style="ellipse;whiteSpace=wrap;html=1;" parent="tAtHUdhInMRuZMIGd15e-1" vertex="1">
          <mxGeometry x="249" y="170" width="110" height="40" as="geometry" />
        </mxCell>
        <mxCell id="tAtHUdhInMRuZMIGd15e-86" value="&lt;font color=&quot;#66cc00&quot;&gt;&amp;lt;&amp;lt;include&amp;gt;&amp;gt;&lt;/font&gt;" style="endArrow=open;endSize=12;dashed=1;html=1;rounded=0;labelBackgroundColor=none;exitX=0;exitY=0.5;exitDx=0;exitDy=0;fillColor=#60a917;strokeColor=#2D7600;" parent="tAtHUdhInMRuZMIGd15e-1" source="tAtHUdhInMRuZMIGd15e-17" target="tAtHUdhInMRuZMIGd15e-85" edge="1">
          <mxGeometry x="0.0029" width="160" relative="1" as="geometry">
            <mxPoint x="490" y="90" as="sourcePoint" />
            <mxPoint x="412" y="409" as="targetPoint" />
            <mxPoint as="offset" />
          </mxGeometry>
        </mxCell>
        <mxCell id="tAtHUdhInMRuZMIGd15e-88" value="&lt;font color=&quot;#ff3333&quot;&gt;&lt;br&gt;&lt;span style=&quot;font-family: Helvetica; font-size: 11px; font-style: normal; font-variant-ligatures: normal; font-variant-caps: normal; font-weight: 400; letter-spacing: normal; orphans: 2; text-align: center; text-indent: 0px; text-transform: none; widows: 2; word-spacing: 0px; -webkit-text-stroke-width: 0px; text-decoration-thickness: initial; text-decoration-style: initial; text-decoration-color: initial; float: none; display: inline !important;&quot;&gt;&amp;lt;&amp;lt;include&amp;gt;&amp;gt;&lt;/span&gt;&lt;br&gt;&lt;/font&gt;" style="endArrow=open;endSize=12;dashed=1;html=1;rounded=0;labelBackgroundColor=none;exitX=0.5;exitY=0;exitDx=0;exitDy=0;fillColor=#e51400;strokeColor=#B20000;" parent="tAtHUdhInMRuZMIGd15e-1" source="tAtHUdhInMRuZMIGd15e-21" edge="1">
          <mxGeometry x="-0.4549" y="6" width="160" relative="1" as="geometry">
            <mxPoint x="100" y="260" as="sourcePoint" />
            <mxPoint x="265" y="204" as="targetPoint" />
            <mxPoint as="offset" />
          </mxGeometry>
        </mxCell>
        <mxCell id="tAtHUdhInMRuZMIGd15e-94" style="edgeStyle=orthogonalEdgeStyle;rounded=0;orthogonalLoop=1;jettySize=auto;html=1;entryX=0.5;entryY=1;entryDx=0;entryDy=0;" parent="tAtHUdhInMRuZMIGd15e-1" source="tAtHUdhInMRuZMIGd15e-92" target="tAtHUdhInMRuZMIGd15e-22" edge="1">
          <mxGeometry relative="1" as="geometry" />
        </mxCell>
        <mxCell id="tAtHUdhInMRuZMIGd15e-92" value="Videos" style="ellipse;whiteSpace=wrap;html=1;" parent="tAtHUdhInMRuZMIGd15e-1" vertex="1">
          <mxGeometry x="85" y="410" width="95" height="40" as="geometry" />
        </mxCell>
        <mxCell id="tAtHUdhInMRuZMIGd15e-95" style="edgeStyle=orthogonalEdgeStyle;rounded=0;orthogonalLoop=1;jettySize=auto;html=1;entryX=0.5;entryY=1;entryDx=0;entryDy=0;" parent="tAtHUdhInMRuZMIGd15e-1" source="tAtHUdhInMRuZMIGd15e-93" target="tAtHUdhInMRuZMIGd15e-22" edge="1">
          <mxGeometry relative="1" as="geometry" />
        </mxCell>
        <mxCell id="tAtHUdhInMRuZMIGd15e-93" value="Links" style="ellipse;whiteSpace=wrap;html=1;" parent="tAtHUdhInMRuZMIGd15e-1" vertex="1">
          <mxGeometry x="187" y="410" width="92" height="39" as="geometry" />
        </mxCell>
        <mxCell id="tAtHUdhInMRuZMIGd15e-99" value="EX.Pt: To Receive Payments" style="text;html=1;strokeColor=none;fillColor=none;align=center;verticalAlign=middle;whiteSpace=wrap;rounded=0;" parent="tAtHUdhInMRuZMIGd15e-1" vertex="1">
          <mxGeometry x="43" y="544" width="150" height="30" as="geometry" />
        </mxCell>
        <mxCell id="tAtHUdhInMRuZMIGd15e-100" value="Bank Details" style="ellipse;whiteSpace=wrap;html=1;" parent="tAtHUdhInMRuZMIGd15e-1" vertex="1">
          <mxGeometry x="253" y="520" width="110" height="40" as="geometry" />
        </mxCell>
        <mxCell id="tAtHUdhInMRuZMIGd15e-101" value="&lt;font color=&quot;#ff3333&quot;&gt;&amp;lt;&amp;lt;extend&amp;gt;&amp;gt;&lt;/font&gt;" style="endArrow=open;endSize=12;dashed=1;html=1;rounded=0;labelBackgroundColor=none;exitX=0;exitY=0.5;exitDx=0;exitDy=0;fillColor=#e51400;strokeColor=#B20000;" parent="tAtHUdhInMRuZMIGd15e-1" source="tAtHUdhInMRuZMIGd15e-100" edge="1">
          <mxGeometry x="-0.0113" width="160" relative="1" as="geometry">
            <mxPoint x="289.71" y="542.11" as="sourcePoint" />
            <mxPoint x="191" y="550" as="targetPoint" />
            <mxPoint as="offset" />
            <Array as="points">
              <mxPoint x="230" y="520" />
            </Array>
          </mxGeometry>
        </mxCell>
        <mxCell id="tAtHUdhInMRuZMIGd15e-103" value="Make Payments" style="ellipse;whiteSpace=wrap;html=1;verticalAlign=middle;spacingBottom=28;" parent="tAtHUdhInMRuZMIGd15e-1" vertex="1">
          <mxGeometry x="353" y="194" width="150" height="60" as="geometry" />
        </mxCell>
        <mxCell id="1LmpeOlybh4bAfhKXDsh-11" style="edgeStyle=orthogonalEdgeStyle;rounded=0;orthogonalLoop=1;jettySize=auto;html=1;entryX=0;entryY=0.5;entryDx=0;entryDy=0;" parent="tAtHUdhInMRuZMIGd15e-1" source="tAtHUdhInMRuZMIGd15e-108" target="tAtHUdhInMRuZMIGd15e-18" edge="1">
          <mxGeometry relative="1" as="geometry" />
        </mxCell>
        <mxCell id="tAtHUdhInMRuZMIGd15e-108" value="Lecture Links" style="ellipse;whiteSpace=wrap;html=1;" parent="tAtHUdhInMRuZMIGd15e-1" vertex="1">
          <mxGeometry x="317" y="305" width="110" height="40" as="geometry" />
        </mxCell>
        <mxCell id="VVYbsxaJ_D7B_WPvVEUb-3" style="edgeStyle=orthogonalEdgeStyle;rounded=0;orthogonalLoop=1;jettySize=auto;html=1;entryX=0.5;entryY=1;entryDx=0;entryDy=0;" parent="tAtHUdhInMRuZMIGd15e-1" source="tAtHUdhInMRuZMIGd15e-111" target="tAtHUdhInMRuZMIGd15e-37" edge="1">
          <mxGeometry relative="1" as="geometry" />
        </mxCell>
        <mxCell id="tAtHUdhInMRuZMIGd15e-111" value="Add Pages" style="ellipse;whiteSpace=wrap;html=1;" parent="tAtHUdhInMRuZMIGd15e-1" vertex="1">
          <mxGeometry x="455" y="890" width="115" height="40" as="geometry" />
        </mxCell>
        <mxCell id="VVYbsxaJ_D7B_WPvVEUb-4" style="edgeStyle=orthogonalEdgeStyle;rounded=0;orthogonalLoop=1;jettySize=auto;html=1;entryX=0.5;entryY=1;entryDx=0;entryDy=0;" parent="tAtHUdhInMRuZMIGd15e-1" source="tAtHUdhInMRuZMIGd15e-166" target="tAtHUdhInMRuZMIGd15e-37" edge="1">
          <mxGeometry relative="1" as="geometry">
            <Array as="points">
              <mxPoint x="405" y="830" />
              <mxPoint x="513" y="830" />
            </Array>
          </mxGeometry>
        </mxCell>
        <mxCell id="tAtHUdhInMRuZMIGd15e-166" value="Remove Pages" style="ellipse;whiteSpace=wrap;html=1;" parent="tAtHUdhInMRuZMIGd15e-1" vertex="1">
          <mxGeometry x="359" y="850" width="110" height="40" as="geometry" />
        </mxCell>
        <mxCell id="VVYbsxaJ_D7B_WPvVEUb-7" style="edgeStyle=orthogonalEdgeStyle;rounded=0;orthogonalLoop=1;jettySize=auto;html=1;entryX=0.5;entryY=1;entryDx=0;entryDy=0;" parent="tAtHUdhInMRuZMIGd15e-1" source="tAtHUdhInMRuZMIGd15e-173" target="tAtHUdhInMRuZMIGd15e-38" edge="1">
          <mxGeometry relative="1" as="geometry">
            <Array as="points">
              <mxPoint x="385" y="680" />
              <mxPoint x="520" y="680" />
            </Array>
          </mxGeometry>
        </mxCell>
        <mxCell id="tAtHUdhInMRuZMIGd15e-173" value="Add Users" style="ellipse;whiteSpace=wrap;html=1;" parent="tAtHUdhInMRuZMIGd15e-1" vertex="1">
          <mxGeometry x="330" y="730" width="110" height="40" as="geometry" />
        </mxCell>
        <mxCell id="tAtHUdhInMRuZMIGd15e-178" style="edgeStyle=orthogonalEdgeStyle;rounded=0;orthogonalLoop=1;jettySize=auto;html=1;entryX=0.5;entryY=1;entryDx=0;entryDy=0;" parent="tAtHUdhInMRuZMIGd15e-1" source="tAtHUdhInMRuZMIGd15e-174" target="tAtHUdhInMRuZMIGd15e-38" edge="1">
          <mxGeometry relative="1" as="geometry" />
        </mxCell>
        <mxCell id="tAtHUdhInMRuZMIGd15e-174" value="Remove Users" style="ellipse;whiteSpace=wrap;html=1;" parent="tAtHUdhInMRuZMIGd15e-1" vertex="1">
          <mxGeometry x="465" y="730" width="110" height="40" as="geometry" />
        </mxCell>
        <mxCell id="tAtHUdhInMRuZMIGd15e-175" value="Edit Users" style="ellipse;whiteSpace=wrap;html=1;" parent="tAtHUdhInMRuZMIGd15e-1" vertex="1">
          <mxGeometry x="545" y="684" width="110" height="40" as="geometry" />
        </mxCell>
        <mxCell id="tAtHUdhInMRuZMIGd15e-176" style="edgeStyle=orthogonalEdgeStyle;rounded=0;orthogonalLoop=1;jettySize=auto;html=1;entryX=0.5;entryY=1;entryDx=0;entryDy=0;" parent="tAtHUdhInMRuZMIGd15e-1" source="tAtHUdhInMRuZMIGd15e-175" target="tAtHUdhInMRuZMIGd15e-38" edge="1">
          <mxGeometry relative="1" as="geometry">
            <mxPoint x="460" y="710" as="targetPoint" />
            <Array as="points">
              <mxPoint x="600" y="680" />
              <mxPoint x="520" y="680" />
            </Array>
          </mxGeometry>
        </mxCell>
        <mxCell id="tAtHUdhInMRuZMIGd15e-184" style="edgeStyle=orthogonalEdgeStyle;rounded=0;orthogonalLoop=1;jettySize=auto;html=1;entryX=0.5;entryY=1;entryDx=0;entryDy=0;" parent="tAtHUdhInMRuZMIGd15e-1" source="tAtHUdhInMRuZMIGd15e-179" target="tAtHUdhInMRuZMIGd15e-29" edge="1">
          <mxGeometry relative="1" as="geometry" />
        </mxCell>
        <mxCell id="tAtHUdhInMRuZMIGd15e-179" value="Daily" style="ellipse;whiteSpace=wrap;html=1;" parent="tAtHUdhInMRuZMIGd15e-1" vertex="1">
          <mxGeometry x="113" y="990" width="110" height="40" as="geometry" />
        </mxCell>
        <mxCell id="tAtHUdhInMRuZMIGd15e-185" style="edgeStyle=orthogonalEdgeStyle;rounded=0;orthogonalLoop=1;jettySize=auto;html=1;entryX=0.5;entryY=1;entryDx=0;entryDy=0;" parent="tAtHUdhInMRuZMIGd15e-1" source="tAtHUdhInMRuZMIGd15e-180" target="tAtHUdhInMRuZMIGd15e-29" edge="1">
          <mxGeometry relative="1" as="geometry" />
        </mxCell>
        <mxCell id="tAtHUdhInMRuZMIGd15e-180" value="Yearly" style="ellipse;whiteSpace=wrap;html=1;" parent="tAtHUdhInMRuZMIGd15e-1" vertex="1">
          <mxGeometry x="240" y="980" width="110" height="40" as="geometry" />
        </mxCell>
        <mxCell id="tAtHUdhInMRuZMIGd15e-181" value="Monthly" style="ellipse;whiteSpace=wrap;html=1;" parent="tAtHUdhInMRuZMIGd15e-1" vertex="1">
          <mxGeometry x="180" y="1030" width="110" height="40" as="geometry" />
        </mxCell>
        <mxCell id="tAtHUdhInMRuZMIGd15e-182" style="edgeStyle=orthogonalEdgeStyle;rounded=0;orthogonalLoop=1;jettySize=auto;html=1;entryX=0.5;entryY=1;entryDx=0;entryDy=0;" parent="tAtHUdhInMRuZMIGd15e-1" source="tAtHUdhInMRuZMIGd15e-181" target="tAtHUdhInMRuZMIGd15e-29" edge="1">
          <mxGeometry relative="1" as="geometry">
            <mxPoint x="236" y="960" as="targetPoint" />
          </mxGeometry>
        </mxCell>
        <mxCell id="tAtHUdhInMRuZMIGd15e-187" value="EX.Pt: If&amp;nbsp; there are user&lt;br&gt;Complaints" style="text;html=1;strokeColor=none;fillColor=none;align=center;verticalAlign=middle;whiteSpace=wrap;rounded=0;" parent="tAtHUdhInMRuZMIGd15e-1" vertex="1">
          <mxGeometry x="485" y="977" width="150" height="30" as="geometry" />
        </mxCell>
        <mxCell id="tAtHUdhInMRuZMIGd15e-188" value="Take Action" style="ellipse;whiteSpace=wrap;html=1;" parent="tAtHUdhInMRuZMIGd15e-1" vertex="1">
          <mxGeometry x="359" y="1030" width="110" height="40" as="geometry" />
        </mxCell>
        <mxCell id="tAtHUdhInMRuZMIGd15e-189" value="&lt;font color=&quot;#3333ff&quot;&gt;&amp;lt;&amp;lt;extend&amp;gt;&amp;gt;&lt;/font&gt;" style="endArrow=open;endSize=12;dashed=1;html=1;rounded=0;entryX=0.25;entryY=1;entryDx=0;entryDy=0;labelBackgroundColor=none;exitX=1;exitY=0;exitDx=0;exitDy=0;fillColor=#0050ef;strokeColor=#001DBC;" parent="tAtHUdhInMRuZMIGd15e-1" source="tAtHUdhInMRuZMIGd15e-188" target="tAtHUdhInMRuZMIGd15e-187" edge="1">
          <mxGeometry x="-0.0113" width="160" relative="1" as="geometry">
            <mxPoint x="404.28999999999996" y="1002" as="sourcePoint" />
            <mxPoint x="404.28999999999996" y="930" as="targetPoint" />
            <mxPoint as="offset" />
          </mxGeometry>
        </mxCell>
        <mxCell id="1LmpeOlybh4bAfhKXDsh-2" value="&lt;font color=&quot;#66cc00&quot;&gt;&amp;lt;&amp;lt;include&amp;gt;&amp;gt;&lt;/font&gt;" style="endArrow=open;endSize=12;dashed=1;html=1;rounded=0;labelBackgroundColor=none;exitX=0.5;exitY=1;exitDx=0;exitDy=0;entryX=1;entryY=0;entryDx=0;entryDy=0;fillColor=#60a917;strokeColor=#2D7600;" parent="tAtHUdhInMRuZMIGd15e-1" source="tAtHUdhInMRuZMIGd15e-16" target="tAtHUdhInMRuZMIGd15e-103" edge="1">
          <mxGeometry x="0.0029" width="160" relative="1" as="geometry">
            <mxPoint x="490" y="90" as="sourcePoint" />
            <mxPoint x="412" y="409" as="targetPoint" />
            <mxPoint as="offset" />
          </mxGeometry>
        </mxCell>
        <mxCell id="1LmpeOlybh4bAfhKXDsh-4" value="Get Modules" style="ellipse;whiteSpace=wrap;html=1;" parent="tAtHUdhInMRuZMIGd15e-1" vertex="1">
          <mxGeometry x="259" y="260" width="110" height="40" as="geometry" />
        </mxCell>
        <mxCell id="1LmpeOlybh4bAfhKXDsh-5" value="&amp;lt;&amp;lt;include&amp;gt;&amp;gt;" style="endArrow=open;endSize=12;dashed=1;html=1;rounded=0;labelBackgroundColor=none;entryX=0;entryY=0.5;entryDx=0;entryDy=0;exitX=0.5;exitY=0;exitDx=0;exitDy=0;" parent="tAtHUdhInMRuZMIGd15e-1" source="1LmpeOlybh4bAfhKXDsh-4" target="tAtHUdhInMRuZMIGd15e-103" edge="1">
          <mxGeometry x="0.0029" width="160" relative="1" as="geometry">
            <mxPoint x="290" y="240" as="sourcePoint" />
            <mxPoint x="323" y="214" as="targetPoint" />
            <mxPoint as="offset" />
          </mxGeometry>
        </mxCell>
        <mxCell id="1LmpeOlybh4bAfhKXDsh-7" value="&lt;font color=&quot;#66cc00&quot;&gt;&amp;lt;&amp;lt;include&amp;gt;&amp;gt;&lt;/font&gt;" style="endArrow=open;endSize=12;dashed=1;html=1;rounded=0;labelBackgroundColor=none;exitX=0.206;exitY=0.94;exitDx=0;exitDy=0;fillColor=#60a917;strokeColor=#2D7600;exitPerimeter=0;entryX=1;entryY=0.5;entryDx=0;entryDy=0;" parent="tAtHUdhInMRuZMIGd15e-1" source="tAtHUdhInMRuZMIGd15e-14" target="1LmpeOlybh4bAfhKXDsh-4" edge="1">
          <mxGeometry x="0.085" y="-9" width="160" relative="1" as="geometry">
            <mxPoint x="615" y="210" as="sourcePoint" />
            <mxPoint x="380" y="280" as="targetPoint" />
            <mxPoint as="offset" />
            <Array as="points">
              <mxPoint x="450" y="300" />
            </Array>
          </mxGeometry>
        </mxCell>
        <mxCell id="1LmpeOlybh4bAfhKXDsh-9" value="&lt;font color=&quot;#ff3333&quot;&gt;&lt;br&gt;&lt;span style=&quot;font-family: Helvetica; font-size: 11px; font-style: normal; font-variant-ligatures: normal; font-variant-caps: normal; font-weight: 400; letter-spacing: normal; orphans: 2; text-align: center; text-indent: 0px; text-transform: none; widows: 2; word-spacing: 0px; -webkit-text-stroke-width: 0px; text-decoration-thickness: initial; text-decoration-style: initial; text-decoration-color: initial; float: none; display: inline !important;&quot;&gt;&amp;lt;&amp;lt;include&amp;gt;&amp;gt;&lt;/span&gt;&lt;br&gt;&lt;/font&gt;" style="endArrow=open;endSize=12;dashed=1;html=1;rounded=0;exitX=1;exitY=0.5;exitDx=0;exitDy=0;entryX=0;entryY=0.5;entryDx=0;entryDy=0;labelBackgroundColor=none;fillColor=#e51400;strokeColor=#B20000;" parent="tAtHUdhInMRuZMIGd15e-1" source="tAtHUdhInMRuZMIGd15e-23" target="tAtHUdhInMRuZMIGd15e-19" edge="1">
          <mxGeometry x="0.1951" y="7" width="160" relative="1" as="geometry">
            <mxPoint x="210" y="274" as="sourcePoint" />
            <mxPoint x="242" y="329" as="targetPoint" />
            <mxPoint as="offset" />
            <Array as="points" />
          </mxGeometry>
        </mxCell>
        <mxCell id="1LmpeOlybh4bAfhKXDsh-15" value="&lt;font color=&quot;#66cc00&quot;&gt;&lt;br&gt;&lt;span style=&quot;font-family: Helvetica; font-size: 11px; font-style: normal; font-variant-ligatures: normal; font-variant-caps: normal; font-weight: 400; letter-spacing: normal; orphans: 2; text-align: center; text-indent: 0px; text-transform: none; widows: 2; word-spacing: 0px; -webkit-text-stroke-width: 0px; text-decoration-thickness: initial; text-decoration-style: initial; text-decoration-color: initial; float: none; display: inline !important;&quot;&gt;&amp;lt;&amp;lt;include&amp;gt;&amp;gt;&lt;/span&gt;&lt;br&gt;&lt;/font&gt;" style="endArrow=open;endSize=12;dashed=1;html=1;rounded=0;labelBackgroundColor=none;fillColor=#60a917;strokeColor=#2D7600;entryX=0.956;entryY=0.46;entryDx=0;entryDy=0;entryPerimeter=0;" parent="tAtHUdhInMRuZMIGd15e-1" target="tAtHUdhInMRuZMIGd15e-26" edge="1">
          <mxGeometry x="-0.0786" y="-7" width="160" relative="1" as="geometry">
            <mxPoint x="526" y="354" as="sourcePoint" />
            <mxPoint x="320" y="550" as="targetPoint" />
            <mxPoint as="offset" />
          </mxGeometry>
        </mxCell>
        <mxCell id="1LmpeOlybh4bAfhKXDsh-17" value="&lt;font color=&quot;#66cc00&quot;&gt;&lt;br&gt;&lt;span style=&quot;font-family: Helvetica; font-size: 11px; font-style: normal; font-variant-ligatures: normal; font-variant-caps: normal; font-weight: 400; letter-spacing: normal; orphans: 2; text-align: center; text-indent: 0px; text-transform: none; widows: 2; word-spacing: 0px; -webkit-text-stroke-width: 0px; text-decoration-thickness: initial; text-decoration-style: initial; text-decoration-color: initial; float: none; display: inline !important;&quot;&gt;&amp;lt;&amp;lt;include&amp;gt;&amp;gt;&lt;/span&gt;&lt;br&gt;&lt;/font&gt;" style="endArrow=open;endSize=12;dashed=1;html=1;rounded=0;exitX=0.259;exitY=0.94;exitDx=0;exitDy=0;labelBackgroundColor=none;fillColor=#60a917;strokeColor=#2D7600;exitPerimeter=0;entryX=1;entryY=0.5;entryDx=0;entryDy=0;" parent="tAtHUdhInMRuZMIGd15e-1" source="tAtHUdhInMRuZMIGd15e-18" target="tAtHUdhInMRuZMIGd15e-27" edge="1">
          <mxGeometry x="0.3191" y="2" width="160" relative="1" as="geometry">
            <mxPoint x="210" y="274" as="sourcePoint" />
            <mxPoint x="180" y="820" as="targetPoint" />
            <mxPoint as="offset" />
          </mxGeometry>
        </mxCell>
        <mxCell id="1LmpeOlybh4bAfhKXDsh-18" value="&lt;font color=&quot;#cccc00&quot;&gt;&lt;br&gt;&lt;span style=&quot;font-family: Helvetica; font-size: 11px; font-style: normal; font-variant-ligatures: normal; font-variant-caps: normal; font-weight: 400; letter-spacing: normal; orphans: 2; text-align: center; text-indent: 0px; text-transform: none; widows: 2; word-spacing: 0px; -webkit-text-stroke-width: 0px; text-decoration-thickness: initial; text-decoration-style: initial; text-decoration-color: initial; float: none; display: inline !important;&quot;&gt;&amp;lt;&amp;lt;include&amp;gt;&amp;gt;&lt;/span&gt;&lt;br&gt;&lt;/font&gt;" style="endArrow=open;endSize=12;dashed=1;html=1;rounded=0;exitX=0.669;exitY=0.093;exitDx=0;exitDy=0;entryX=0.093;entryY=0.79;entryDx=0;entryDy=0;labelBackgroundColor=none;fillColor=#e3c800;strokeColor=#B09500;exitPerimeter=0;entryPerimeter=0;" parent="tAtHUdhInMRuZMIGd15e-1" source="tAtHUdhInMRuZMIGd15e-29" target="tAtHUdhInMRuZMIGd15e-19" edge="1">
          <mxGeometry x="0.1818" y="6" width="160" relative="1" as="geometry">
            <mxPoint x="210" y="274" as="sourcePoint" />
            <mxPoint x="242" y="329" as="targetPoint" />
            <mxPoint as="offset" />
          </mxGeometry>
        </mxCell>
        <mxCell id="1LmpeOlybh4bAfhKXDsh-20" value="&lt;font color=&quot;#cccc00&quot;&gt;&lt;br&gt;&lt;span style=&quot;font-family: Helvetica; font-size: 11px; font-style: normal; font-variant-ligatures: normal; font-variant-caps: normal; font-weight: 400; letter-spacing: normal; orphans: 2; text-align: center; text-indent: 0px; text-transform: none; widows: 2; word-spacing: 0px; -webkit-text-stroke-width: 0px; text-decoration-thickness: initial; text-decoration-style: initial; text-decoration-color: initial; float: none; display: inline !important;&quot;&gt;&amp;lt;&amp;lt;include&amp;gt;&amp;gt;&lt;/span&gt;&lt;br&gt;&lt;/font&gt;" style="endArrow=open;endSize=12;dashed=1;html=1;rounded=0;labelBackgroundColor=none;entryX=0.396;entryY=0.96;entryDx=0;entryDy=0;entryPerimeter=0;fillColor=#e3c800;strokeColor=#B09500;exitX=0.5;exitY=0;exitDx=0;exitDy=0;" parent="tAtHUdhInMRuZMIGd15e-1" source="tAtHUdhInMRuZMIGd15e-29" target="tAtHUdhInMRuZMIGd15e-18" edge="1">
          <mxGeometry x="0.1473" y="6" width="160" relative="1" as="geometry">
            <mxPoint x="190" y="840" as="sourcePoint" />
            <mxPoint x="540" y="370" as="targetPoint" />
            <mxPoint y="-1" as="offset" />
          </mxGeometry>
        </mxCell>
        <mxCell id="1LmpeOlybh4bAfhKXDsh-23" value="&lt;font color=&quot;#cccc00&quot;&gt;&lt;br&gt;&lt;span style=&quot;font-family: Helvetica; font-size: 11px; font-style: normal; font-variant-ligatures: normal; font-variant-caps: normal; font-weight: 400; letter-spacing: normal; orphans: 2; text-align: center; text-indent: 0px; text-transform: none; widows: 2; word-spacing: 0px; -webkit-text-stroke-width: 0px; text-decoration-thickness: initial; text-decoration-style: initial; text-decoration-color: initial; float: none; display: inline !important;&quot;&gt;&amp;lt;&amp;lt;extend&amp;gt;&amp;gt;&lt;/span&gt;&lt;br&gt;&lt;/font&gt;" style="endArrow=open;endSize=12;dashed=1;html=1;rounded=0;exitX=0;exitY=1;exitDx=0;exitDy=0;labelBackgroundColor=none;fillColor=#e3c800;strokeColor=#B09500;entryX=0.5;entryY=0;entryDx=0;entryDy=0;" parent="tAtHUdhInMRuZMIGd15e-1" source="tAtHUdhInMRuZMIGd15e-29" target="tAtHUdhInMRuZMIGd15e-28" edge="1">
          <mxGeometry x="-0.0401" y="7" width="160" relative="1" as="geometry">
            <mxPoint x="210" y="274" as="sourcePoint" />
            <mxPoint x="60" y="910" as="targetPoint" />
            <mxPoint as="offset" />
            <Array as="points" />
          </mxGeometry>
        </mxCell>
        <mxCell id="0r5ZPtHOs1wL6muMFCbV-1" value="&lt;font color=&quot;#ff3333&quot;&gt;&lt;br&gt;&lt;span style=&quot;font-family: Helvetica; font-size: 11px; font-style: normal; font-variant-ligatures: normal; font-variant-caps: normal; font-weight: 400; letter-spacing: normal; orphans: 2; text-align: center; text-indent: 0px; text-transform: none; widows: 2; word-spacing: 0px; -webkit-text-stroke-width: 0px; text-decoration-thickness: initial; text-decoration-style: initial; text-decoration-color: initial; float: none; display: inline !important;&quot;&gt;&amp;lt;&amp;lt;include&amp;gt;&amp;gt;&lt;/span&gt;&lt;br&gt;&lt;/font&gt;" style="endArrow=open;endSize=12;dashed=1;html=1;rounded=0;entryX=1;entryY=0.5;entryDx=0;entryDy=0;labelBackgroundColor=none;fillColor=#e51400;strokeColor=#B20000;exitX=0.053;exitY=0.76;exitDx=0;exitDy=0;exitPerimeter=0;" parent="tAtHUdhInMRuZMIGd15e-1" source="tAtHUdhInMRuZMIGd15e-18" target="tAtHUdhInMRuZMIGd15e-22" edge="1">
          <mxGeometry x="-0.0576" y="-1" width="160" relative="1" as="geometry">
            <mxPoint x="470" y="320" as="sourcePoint" />
            <mxPoint x="242" y="329" as="targetPoint" />
            <mxPoint as="offset" />
            <Array as="points">
              <mxPoint x="380" y="370" />
            </Array>
          </mxGeometry>
        </mxCell>
        <mxCell id="0r5ZPtHOs1wL6muMFCbV-4" value="&lt;font color=&quot;#ff3333&quot;&gt;&amp;lt;&amp;lt;include&amp;gt;&amp;gt;&lt;/font&gt;" style="endArrow=open;endSize=12;dashed=1;html=1;rounded=0;entryX=0;entryY=0;entryDx=0;entryDy=0;labelBackgroundColor=none;fillColor=#e51400;strokeColor=#B20000;exitX=1;exitY=0;exitDx=0;exitDy=0;" parent="tAtHUdhInMRuZMIGd15e-1" source="tAtHUdhInMRuZMIGd15e-99" target="tAtHUdhInMRuZMIGd15e-41" edge="1">
          <mxGeometry x="-0.0113" width="160" relative="1" as="geometry">
            <mxPoint x="180" y="550" as="sourcePoint" />
            <mxPoint x="175.71" y="566.11" as="targetPoint" />
            <mxPoint as="offset" />
            <Array as="points">
              <mxPoint x="260" y="580" />
              <mxPoint x="290" y="840" />
            </Array>
          </mxGeometry>
        </mxCell>
        <mxCell id="0r5ZPtHOs1wL6muMFCbV-5" value="&lt;font color=&quot;#cccc00&quot;&gt;&lt;br&gt;&lt;span style=&quot;font-family: Helvetica; font-size: 11px; font-style: normal; font-variant-ligatures: normal; font-variant-caps: normal; font-weight: 400; letter-spacing: normal; orphans: 2; text-align: center; text-indent: 0px; text-transform: none; widows: 2; word-spacing: 0px; -webkit-text-stroke-width: 0px; text-decoration-thickness: initial; text-decoration-style: initial; text-decoration-color: initial; float: none; display: inline !important;&quot;&gt;&amp;lt;&amp;lt;include&amp;gt;&amp;gt;&lt;/span&gt;&lt;/font&gt;" style="endArrow=open;endSize=12;dashed=1;html=1;rounded=0;entryX=0;entryY=0.5;entryDx=0;entryDy=0;labelBackgroundColor=none;exitX=1;exitY=1;exitDx=0;exitDy=0;fillColor=#e3c800;strokeColor=#B09500;" parent="tAtHUdhInMRuZMIGd15e-1" source="tAtHUdhInMRuZMIGd15e-29" target="tAtHUdhInMRuZMIGd15e-41" edge="1">
          <mxGeometry x="-0.4559" y="6" width="160" relative="1" as="geometry">
            <mxPoint x="100" y="260" as="sourcePoint" />
            <mxPoint x="242" y="329" as="targetPoint" />
            <mxPoint as="offset" />
          </mxGeometry>
        </mxCell>
        <mxCell id="0r5ZPtHOs1wL6muMFCbV-6" value="&lt;font color=&quot;#cccc00&quot;&gt;&lt;br&gt;&lt;span style=&quot;font-family: Helvetica; font-size: 11px; font-style: normal; font-variant-ligatures: normal; font-variant-caps: normal; font-weight: 400; letter-spacing: normal; orphans: 2; text-align: center; text-indent: 0px; text-transform: none; widows: 2; word-spacing: 0px; -webkit-text-stroke-width: 0px; text-decoration-thickness: initial; text-decoration-style: initial; text-decoration-color: initial; float: none; display: inline !important;&quot;&gt;&amp;lt;&amp;lt;include&amp;gt;&amp;gt;&lt;/span&gt;&lt;br&gt;&lt;/font&gt;" style="endArrow=open;endSize=12;dashed=1;html=1;rounded=0;exitX=0.074;exitY=0.28;exitDx=0;exitDy=0;labelBackgroundColor=none;fillColor=#e3c800;strokeColor=#B09500;exitPerimeter=0;entryX=0.067;entryY=0.794;entryDx=0;entryDy=0;entryPerimeter=0;" parent="tAtHUdhInMRuZMIGd15e-1" source="tAtHUdhInMRuZMIGd15e-29" target="tAtHUdhInMRuZMIGd15e-22" edge="1">
          <mxGeometry x="-0.0481" y="7" width="160" relative="1" as="geometry">
            <mxPoint x="349" y="886" as="sourcePoint" />
            <mxPoint x="224" y="383" as="targetPoint" />
            <mxPoint as="offset" />
            <Array as="points">
              <mxPoint x="20" y="750" />
              <mxPoint x="20" y="480" />
              <mxPoint x="80" y="390" />
            </Array>
          </mxGeometry>
        </mxCell>
        <mxCell id="0r5ZPtHOs1wL6muMFCbV-7" value="&lt;font color=&quot;#66cc00&quot;&gt;&amp;lt;&amp;lt;extend&amp;gt;&amp;gt;&lt;/font&gt;" style="endArrow=open;endSize=12;dashed=1;html=1;rounded=0;labelBackgroundColor=none;exitX=0.5;exitY=1;exitDx=0;exitDy=0;fillColor=#60a917;strokeColor=#2D7600;" parent="tAtHUdhInMRuZMIGd15e-1" source="tAtHUdhInMRuZMIGd15e-14" edge="1">
          <mxGeometry x="0.0029" width="160" relative="1" as="geometry">
            <mxPoint x="490" y="90" as="sourcePoint" />
            <mxPoint x="575" y="290" as="targetPoint" />
            <mxPoint as="offset" />
          </mxGeometry>
        </mxCell>
        <mxCell id="0r5ZPtHOs1wL6muMFCbV-18" value="" style="line;strokeWidth=1;fillColor=none;align=left;verticalAlign=top;spacingTop=-1;spacingLeft=3;spacingRight=3;rotatable=0;labelPosition=right;points=[];portConstraint=eastwest;strokeColor=inherit;" parent="tAtHUdhInMRuZMIGd15e-1" vertex="1">
          <mxGeometry x="505" y="321" width="140" height="8" as="geometry" />
        </mxCell>
        <mxCell id="0r5ZPtHOs1wL6muMFCbV-19" value="&lt;p style=&quot;line-height: 70%;&quot;&gt;&lt;font style=&quot;font-size: 11px;&quot;&gt;Ex.Pt: If User wants to&lt;br style=&quot;border-color: var(--border-color);&quot;&gt;&lt;/font&gt;&lt;span style=&quot;font-size: 12px;&quot;&gt;attend&amp;nbsp;lectures&lt;/span&gt;&lt;br&gt;&lt;/p&gt;" style="text;html=1;strokeColor=none;fillColor=none;align=center;verticalAlign=middle;whiteSpace=wrap;rounded=0;fontSize=16;" parent="tAtHUdhInMRuZMIGd15e-1" vertex="1">
          <mxGeometry x="512.5" y="326" width="125" height="30" as="geometry" />
        </mxCell>
        <mxCell id="0r5ZPtHOs1wL6muMFCbV-20" value="" style="line;strokeWidth=1;fillColor=none;align=left;verticalAlign=top;spacingTop=-1;spacingLeft=3;spacingRight=3;rotatable=0;labelPosition=right;points=[];portConstraint=eastwest;strokeColor=inherit;" parent="tAtHUdhInMRuZMIGd15e-1" vertex="1">
          <mxGeometry x="10" y="944" width="140" height="8" as="geometry" />
        </mxCell>
        <mxCell id="0r5ZPtHOs1wL6muMFCbV-106" value="&lt;p style=&quot;line-height: 70%;&quot;&gt;&lt;font style=&quot;font-size: 11px;&quot;&gt;Ex.Pt: If Coodinator wants to mange Activities&lt;br style=&quot;border-color: var(--border-color);&quot;&gt;&lt;/font&gt;&lt;br&gt;&lt;/p&gt;" style="text;html=1;strokeColor=none;fillColor=none;align=center;verticalAlign=middle;whiteSpace=wrap;rounded=0;fontSize=16;" parent="tAtHUdhInMRuZMIGd15e-1" vertex="1">
          <mxGeometry x="15" y="956" width="135" height="30" as="geometry" />
        </mxCell>
        <mxCell id="4SOxO9wgs9pjHXPsYEH8-1" value="Attending Exams" style="ellipse;whiteSpace=wrap;html=1;fillColor=#d5e8d4;strokeColor=#82b366;gradientColor=#97d077;" parent="tAtHUdhInMRuZMIGd15e-1" vertex="1">
          <mxGeometry x="524" y="476" width="140" height="40" as="geometry" />
        </mxCell>
        <mxCell id="4SOxO9wgs9pjHXPsYEH8-2" value="Create Exams" style="ellipse;whiteSpace=wrap;html=1;fillColor=#f8cecc;strokeColor=#b85450;gradientColor=#ea6b66;" parent="tAtHUdhInMRuZMIGd15e-1" vertex="1">
          <mxGeometry x="70" y="596" width="140" height="40" as="geometry" />
        </mxCell>
        <mxCell id="4SOxO9wgs9pjHXPsYEH8-7" value="&lt;font color=&quot;#66cc00&quot;&gt;&lt;br&gt;&lt;span style=&quot;font-family: Helvetica; font-size: 11px; font-style: normal; font-variant-ligatures: normal; font-variant-caps: normal; font-weight: 400; letter-spacing: normal; orphans: 2; text-align: center; text-indent: 0px; text-transform: none; widows: 2; word-spacing: 0px; -webkit-text-stroke-width: 0px; text-decoration-thickness: initial; text-decoration-style: initial; text-decoration-color: initial; float: none; display: inline !important;&quot;&gt;&amp;lt;&amp;lt;include&amp;gt;&amp;gt;&lt;/span&gt;&lt;/font&gt;" style="endArrow=open;endSize=12;dashed=1;html=1;rounded=0;labelBackgroundColor=none;fillColor=#60a917;strokeColor=#2D7600;entryX=1;entryY=0.5;entryDx=0;entryDy=0;exitX=0;exitY=0.5;exitDx=0;exitDy=0;" parent="tAtHUdhInMRuZMIGd15e-1" source="4SOxO9wgs9pjHXPsYEH8-1" target="4SOxO9wgs9pjHXPsYEH8-2" edge="1">
          <mxGeometry x="0.4233" y="-1" width="160" relative="1" as="geometry">
            <mxPoint x="520" y="530" as="sourcePoint" />
            <mxPoint x="265" y="204" as="targetPoint" />
            <mxPoint as="offset" />
          </mxGeometry>
        </mxCell>
        <mxCell id="4SOxO9wgs9pjHXPsYEH8-8" value="&lt;font color=&quot;#66cc00&quot;&gt;&lt;br&gt;&lt;span style=&quot;font-family: Helvetica; font-size: 11px; font-style: normal; font-variant-ligatures: normal; font-variant-caps: normal; font-weight: 400; letter-spacing: normal; orphans: 2; text-align: center; text-indent: 0px; text-transform: none; widows: 2; word-spacing: 0px; -webkit-text-stroke-width: 0px; text-decoration-thickness: initial; text-decoration-style: initial; text-decoration-color: initial; float: none; display: inline !important;&quot;&gt;&amp;lt;&amp;lt;include&amp;gt;&amp;gt;&lt;/span&gt;&lt;/font&gt;" style="endArrow=open;endSize=12;dashed=1;html=1;rounded=0;labelBackgroundColor=none;fillColor=#60a917;strokeColor=#2D7600;entryX=0.5;entryY=0;entryDx=0;entryDy=0;exitX=0.5;exitY=1;exitDx=0;exitDy=0;" parent="tAtHUdhInMRuZMIGd15e-1" source="4SOxO9wgs9pjHXPsYEH8-1" target="tAtHUdhInMRuZMIGd15e-26" edge="1">
          <mxGeometry x="0.6892" y="-5" width="160" relative="1" as="geometry">
            <mxPoint x="580" y="510" as="sourcePoint" />
            <mxPoint x="265" y="204" as="targetPoint" />
            <mxPoint as="offset" />
          </mxGeometry>
        </mxCell>
        <mxCell id="4SOxO9wgs9pjHXPsYEH8-9" value="&lt;font color=&quot;#cccc00&quot;&gt;&lt;br&gt;&lt;span style=&quot;font-family: Helvetica; font-size: 11px; font-style: normal; font-variant-ligatures: normal; font-variant-caps: normal; font-weight: 400; letter-spacing: normal; orphans: 2; text-align: center; text-indent: 0px; text-transform: none; widows: 2; word-spacing: 0px; -webkit-text-stroke-width: 0px; text-decoration-thickness: initial; text-decoration-style: initial; text-decoration-color: initial; float: none; display: inline !important;&quot;&gt;&amp;lt;&amp;lt;include&amp;gt;&amp;gt;&lt;/span&gt;&lt;/font&gt;" style="endArrow=open;endSize=12;dashed=1;html=1;rounded=0;labelBackgroundColor=none;fillColor=#e3c800;strokeColor=#B09500;entryX=0.5;entryY=1;entryDx=0;entryDy=0;exitX=0.333;exitY=0.075;exitDx=0;exitDy=0;exitPerimeter=0;" parent="tAtHUdhInMRuZMIGd15e-1" source="tAtHUdhInMRuZMIGd15e-26" target="4SOxO9wgs9pjHXPsYEH8-2" edge="1">
          <mxGeometry x="-0.1013" y="-5" width="160" relative="1" as="geometry">
            <mxPoint x="100" y="260" as="sourcePoint" />
            <mxPoint x="265" y="204" as="targetPoint" />
            <mxPoint as="offset" />
          </mxGeometry>
        </mxCell>
        <mxCell id="4SOxO9wgs9pjHXPsYEH8-10" value="&lt;font color=&quot;#cccc00&quot;&gt;&lt;br&gt;&lt;span style=&quot;font-family: Helvetica; font-size: 11px; font-style: normal; font-variant-ligatures: normal; font-variant-caps: normal; font-weight: 400; letter-spacing: normal; orphans: 2; text-align: center; text-indent: 0px; text-transform: none; widows: 2; word-spacing: 0px; -webkit-text-stroke-width: 0px; text-decoration-thickness: initial; text-decoration-style: initial; text-decoration-color: initial; float: none; display: inline !important;&quot;&gt;&amp;lt;&amp;lt;include&amp;gt;&amp;gt;&lt;/span&gt;&lt;/font&gt;" style="endArrow=open;endSize=12;dashed=1;html=1;rounded=0;labelBackgroundColor=none;fillColor=#e3c800;strokeColor=#B09500;entryX=0;entryY=1;entryDx=0;entryDy=0;exitX=0;exitY=0.5;exitDx=0;exitDy=0;" parent="tAtHUdhInMRuZMIGd15e-1" source="tAtHUdhInMRuZMIGd15e-26" target="tAtHUdhInMRuZMIGd15e-22" edge="1">
          <mxGeometry x="0.461" y="-5" width="160" relative="1" as="geometry">
            <mxPoint x="100" y="260" as="sourcePoint" />
            <mxPoint x="265" y="204" as="targetPoint" />
            <mxPoint as="offset" />
            <Array as="points">
              <mxPoint x="30" y="690" />
              <mxPoint x="30" y="500" />
            </Array>
          </mxGeometry>
        </mxCell>
        <mxCell id="VVYbsxaJ_D7B_WPvVEUb-5" style="edgeStyle=orthogonalEdgeStyle;rounded=0;orthogonalLoop=1;jettySize=auto;html=1;entryX=0.5;entryY=1;entryDx=0;entryDy=0;" parent="tAtHUdhInMRuZMIGd15e-1" source="tAtHUdhInMRuZMIGd15e-167" target="tAtHUdhInMRuZMIGd15e-37" edge="1">
          <mxGeometry relative="1" as="geometry" />
        </mxCell>
        <mxCell id="tAtHUdhInMRuZMIGd15e-167" value="Edit Pages" style="ellipse;whiteSpace=wrap;html=1;" parent="tAtHUdhInMRuZMIGd15e-1" vertex="1">
          <mxGeometry x="530" y="850" width="110" height="40" as="geometry" />
        </mxCell>
        <mxCell id="-epkX59NLXgR2W7X0SHV-1" value="Receipt" style="ellipse;whiteSpace=wrap;html=1;" vertex="1" parent="tAtHUdhInMRuZMIGd15e-1">
          <mxGeometry x="396" y="129" width="90" height="30" as="geometry" />
        </mxCell>
        <mxCell id="-epkX59NLXgR2W7X0SHV-2" value="&lt;font color=&quot;#66cc00&quot;&gt;&amp;lt;&amp;lt;extend&amp;gt;&amp;gt;&lt;/font&gt;" style="endArrow=open;endSize=12;dashed=1;html=1;rounded=0;labelBackgroundColor=none;exitX=0.433;exitY=1.067;exitDx=0;exitDy=0;fillColor=#60a917;strokeColor=#2D7600;exitPerimeter=0;" edge="1" parent="tAtHUdhInMRuZMIGd15e-1" source="-epkX59NLXgR2W7X0SHV-1" target="tAtHUdhInMRuZMIGd15e-103">
          <mxGeometry x="0.0029" width="160" relative="1" as="geometry">
            <mxPoint x="490" y="90" as="sourcePoint" />
            <mxPoint x="575" y="290" as="targetPoint" />
            <mxPoint as="offset" />
          </mxGeometry>
        </mxCell>
        <mxCell id="-epkX59NLXgR2W7X0SHV-5" value="" style="line;strokeWidth=1;fillColor=none;align=left;verticalAlign=middle;spacingTop=-1;spacingLeft=3;spacingRight=3;rotatable=0;labelPosition=right;points=[];portConstraint=eastwest;strokeColor=inherit;" vertex="1" parent="tAtHUdhInMRuZMIGd15e-1">
          <mxGeometry x="354" y="213" width="147.5" height="8" as="geometry" />
        </mxCell>
        <mxCell id="tAtHUdhInMRuZMIGd15e-89" value="Ex.Pt: If User wants to&lt;br&gt;Sign Up" style="text;html=1;strokeColor=none;fillColor=none;align=center;verticalAlign=middle;whiteSpace=wrap;rounded=0;" parent="tAtHUdhInMRuZMIGd15e-1" vertex="1">
          <mxGeometry x="40" y="71" width="140" height="29" as="geometry" />
        </mxCell>
        <mxCell id="1LmpeOlybh4bAfhKXDsh-25" value="&lt;font color=&quot;#808080&quot;&gt;&lt;br&gt;&lt;span style=&quot;font-family: Helvetica; font-size: 11px; font-style: normal; font-variant-ligatures: normal; font-variant-caps: normal; font-weight: 400; letter-spacing: normal; orphans: 2; text-align: center; text-indent: 0px; text-transform: none; widows: 2; word-spacing: 0px; -webkit-text-stroke-width: 0px; text-decoration-thickness: initial; text-decoration-style: initial; text-decoration-color: initial; float: none; display: inline !important;&quot;&gt;&amp;lt;&amp;lt;include&amp;gt;&amp;gt;&lt;/span&gt;&lt;/font&gt;" style="endArrow=open;endSize=12;dashed=1;html=1;rounded=0;labelBackgroundColor=none;fillColor=#647687;strokeColor=#314354;exitX=0.75;exitY=1;exitDx=0;exitDy=0;entryX=0.446;entryY=-0.01;entryDx=0;entryDy=0;entryPerimeter=0;" parent="tAtHUdhInMRuZMIGd15e-1" source="tAtHUdhInMRuZMIGd15e-89" target="tAtHUdhInMRuZMIGd15e-39" edge="1">
          <mxGeometry x="-0.0824" y="1" width="160" relative="1" as="geometry">
            <mxPoint x="190" y="103.60003662109375" as="sourcePoint" />
            <mxPoint x="40" y="230" as="targetPoint" />
            <mxPoint as="offset" />
            <Array as="points" />
          </mxGeometry>
        </mxCell>
        <mxCell id="VVYbsxaJ_D7B_WPvVEUb-9" value="&lt;font color=&quot;#3333ff&quot;&gt;&lt;br&gt;&lt;span style=&quot;font-family: Helvetica; font-size: 11px; font-style: normal; font-variant-ligatures: normal; font-variant-caps: normal; font-weight: 400; letter-spacing: normal; orphans: 2; text-align: center; text-indent: 0px; text-transform: none; widows: 2; word-spacing: 0px; -webkit-text-stroke-width: 0px; text-decoration-thickness: initial; text-decoration-style: initial; text-decoration-color: initial; float: none; display: inline !important;&quot;&gt;&amp;lt;&amp;lt;include&amp;gt;&amp;gt;&lt;/span&gt;&lt;/font&gt;" style="endArrow=open;endSize=12;dashed=1;html=1;rounded=0;labelBackgroundColor=none;fillColor=#0050ef;strokeColor=#001DBC;exitX=0.5;exitY=0;exitDx=0;exitDy=0;entryX=0.857;entryY=0.7;entryDx=0;entryDy=0;entryPerimeter=0;" parent="tAtHUdhInMRuZMIGd15e-1" source="tAtHUdhInMRuZMIGd15e-38" target="tAtHUdhInMRuZMIGd15e-89" edge="1">
          <mxGeometry x="0.6799" y="-3" width="160" relative="1" as="geometry">
            <mxPoint x="225" y="139" as="sourcePoint" />
            <mxPoint x="220" y="190" as="targetPoint" />
            <mxPoint as="offset" />
            <Array as="points">
              <mxPoint x="470" y="470" />
              <mxPoint x="340" y="450" />
            </Array>
          </mxGeometry>
        </mxCell>
        <mxCell id="-epkX59NLXgR2W7X0SHV-6" value="&lt;font style=&quot;font-size: 11px;&quot;&gt;Ex.Pt: If User needs to&lt;br style=&quot;border-color: var(--border-color);&quot;&gt;Payment Confirmation&amp;nbsp;&lt;/font&gt;" style="text;html=1;strokeColor=none;fillColor=none;align=center;verticalAlign=middle;whiteSpace=wrap;rounded=0;" vertex="1" parent="tAtHUdhInMRuZMIGd15e-1">
          <mxGeometry x="358" y="217" width="145" height="30" as="geometry" />
        </mxCell>
        <mxCell id="-epkX59NLXgR2W7X0SHV-11" value="&lt;font color=&quot;#cccc00&quot;&gt;&lt;br&gt;&lt;span style=&quot;font-family: Helvetica; font-size: 11px; font-style: normal; font-variant-ligatures: normal; font-variant-caps: normal; font-weight: 400; letter-spacing: normal; orphans: 2; text-align: center; text-indent: 0px; text-transform: none; widows: 2; word-spacing: 0px; -webkit-text-stroke-width: 0px; text-decoration-thickness: initial; text-decoration-style: initial; text-decoration-color: initial; float: none; display: inline !important;&quot;&gt;&amp;lt;&amp;lt;include&amp;gt;&amp;gt;&lt;/span&gt;&lt;br&gt;&lt;/font&gt;" style="endArrow=open;endSize=12;dashed=1;html=1;rounded=0;exitX=0.074;exitY=0.28;exitDx=0;exitDy=0;labelBackgroundColor=none;fillColor=#e3c800;strokeColor=#B09500;exitPerimeter=0;entryX=0;entryY=0;entryDx=0;entryDy=0;" edge="1" parent="tAtHUdhInMRuZMIGd15e-1" source="tAtHUdhInMRuZMIGd15e-29" target="-epkX59NLXgR2W7X0SHV-6">
          <mxGeometry x="0.2403" y="5" width="160" relative="1" as="geometry">
            <mxPoint x="349" y="886" as="sourcePoint" />
            <mxPoint x="224" y="383" as="targetPoint" />
            <mxPoint as="offset" />
            <Array as="points">
              <mxPoint x="10" y="770" />
              <mxPoint x="10" y="480" />
              <mxPoint x="60" y="370" />
            </Array>
          </mxGeometry>
        </mxCell>
        <mxCell id="-epkX59NLXgR2W7X0SHV-12" value="&lt;font color=&quot;#cccc00&quot;&gt;&lt;br&gt;&lt;span style=&quot;font-family: Helvetica; font-size: 11px; font-style: normal; font-variant-ligatures: normal; font-variant-caps: normal; font-weight: 400; letter-spacing: normal; orphans: 2; text-align: center; text-indent: 0px; text-transform: none; widows: 2; word-spacing: 0px; -webkit-text-stroke-width: 0px; text-decoration-thickness: initial; text-decoration-style: initial; text-decoration-color: initial; float: none; display: inline !important;&quot;&gt;&amp;lt;&amp;lt;include&amp;gt;&amp;gt;&lt;/span&gt;&lt;/font&gt;" style="endArrow=open;endSize=12;dashed=1;html=1;rounded=0;labelBackgroundColor=none;fillColor=#e3c800;strokeColor=#B09500;exitX=0.5;exitY=1;exitDx=0;exitDy=0;" edge="1" parent="tAtHUdhInMRuZMIGd15e-1" source="tAtHUdhInMRuZMIGd15e-27" target="tAtHUdhInMRuZMIGd15e-29">
          <mxGeometry x="-0.0071" y="-7" width="160" relative="1" as="geometry">
            <mxPoint x="100" y="260" as="sourcePoint" />
            <mxPoint x="265" y="204" as="targetPoint" />
            <mxPoint as="offset" />
          </mxGeometry>
        </mxCell>
        <mxCell id="tAtHUdhInMRuZMIGd15e-3" value="Unregistered&lt;br&gt;User" style="shape=umlActor;verticalLabelPosition=bottom;verticalAlign=top;html=1;outlineConnect=0;fillColor=#647687;fontColor=#000000;strokeColor=#314354;" parent="1" vertex="1">
          <mxGeometry x="26" y="140" width="30" height="60" as="geometry" />
        </mxCell>
        <mxCell id="tAtHUdhInMRuZMIGd15e-90" style="edgeStyle=orthogonalEdgeStyle;rounded=0;orthogonalLoop=1;jettySize=auto;html=1;entryX=0.5;entryY=0;entryDx=0;entryDy=0;entryPerimeter=0;" parent="1" source="tAtHUdhInMRuZMIGd15e-4" target="tAtHUdhInMRuZMIGd15e-3" edge="1">
          <mxGeometry relative="1" as="geometry">
            <Array as="points">
              <mxPoint x="797" y="20" />
              <mxPoint x="41" y="20" />
            </Array>
          </mxGeometry>
        </mxCell>
        <mxCell id="tAtHUdhInMRuZMIGd15e-4" value="Trainee&lt;br&gt;Teacher" style="shape=umlActor;verticalLabelPosition=bottom;verticalAlign=top;html=1;outlineConnect=0;fillColor=#008a00;strokeColor=#005700;fontColor=#000000;" parent="1" vertex="1">
          <mxGeometry x="782" y="290" width="30" height="60" as="geometry" />
        </mxCell>
        <mxCell id="tAtHUdhInMRuZMIGd15e-80" style="edgeStyle=orthogonalEdgeStyle;rounded=0;orthogonalLoop=1;jettySize=auto;html=1;entryX=0.5;entryY=0.5;entryDx=0;entryDy=0;entryPerimeter=0;" parent="1" source="tAtHUdhInMRuZMIGd15e-5" target="tAtHUdhInMRuZMIGd15e-3" edge="1">
          <mxGeometry relative="1" as="geometry" />
        </mxCell>
        <mxCell id="tAtHUdhInMRuZMIGd15e-5" value="Lecturer" style="shape=umlActor;verticalLabelPosition=bottom;verticalAlign=top;html=1;outlineConnect=0;fillColor=#e51400;strokeColor=#B20000;fontColor=#000000;" parent="1" vertex="1">
          <mxGeometry x="26" y="525" width="30" height="60" as="geometry" />
        </mxCell>
        <mxCell id="tAtHUdhInMRuZMIGd15e-81" style="edgeStyle=orthogonalEdgeStyle;rounded=0;orthogonalLoop=1;jettySize=auto;html=1;entryX=0.5;entryY=0.5;entryDx=0;entryDy=0;entryPerimeter=0;" parent="1" source="tAtHUdhInMRuZMIGd15e-6" target="tAtHUdhInMRuZMIGd15e-9" edge="1">
          <mxGeometry relative="1" as="geometry">
            <Array as="points">
              <mxPoint x="797" y="1150" />
              <mxPoint x="41" y="1150" />
            </Array>
          </mxGeometry>
        </mxCell>
        <mxCell id="tAtHUdhInMRuZMIGd15e-6" value="&lt;font color=&quot;#000000&quot;&gt;Admin&lt;/font&gt;" style="shape=umlActor;verticalLabelPosition=bottom;verticalAlign=top;html=1;outlineConnect=0;fillColor=#6a00ff;strokeColor=#3700CC;fontColor=#ffffff;" parent="1" vertex="1">
          <mxGeometry x="782" y="710" width="30" height="60" as="geometry" />
        </mxCell>
        <mxCell id="tAtHUdhInMRuZMIGd15e-9" value="Coodinator" style="shape=umlActor;verticalLabelPosition=bottom;verticalAlign=top;html=1;outlineConnect=0;fillColor=#e3c800;strokeColor=#B09500;fontColor=#000000;" parent="1" vertex="1">
          <mxGeometry x="26" y="850" width="30" height="60" as="geometry" />
        </mxCell>
        <mxCell id="tAtHUdhInMRuZMIGd15e-48" value="" style="endArrow=none;html=1;rounded=0;exitX=1;exitY=0.3333333333333333;exitDx=0;exitDy=0;exitPerimeter=0;entryX=0;entryY=0.5;entryDx=0;entryDy=0;fillColor=#647687;strokeColor=#314354;" parent="1" source="tAtHUdhInMRuZMIGd15e-3" target="tAtHUdhInMRuZMIGd15e-11" edge="1">
          <mxGeometry relative="1" as="geometry">
            <mxPoint y="190" as="sourcePoint" />
            <mxPoint x="107" y="197" as="targetPoint" />
          </mxGeometry>
        </mxCell>
        <mxCell id="tAtHUdhInMRuZMIGd15e-50" value="" style="endArrow=none;html=1;rounded=0;exitX=1;exitY=0.3333333333333333;exitDx=0;exitDy=0;exitPerimeter=0;entryX=0;entryY=0.359;entryDx=0;entryDy=0;entryPerimeter=0;fillColor=#647687;strokeColor=#314354;" parent="1" source="tAtHUdhInMRuZMIGd15e-3" target="tAtHUdhInMRuZMIGd15e-13" edge="1">
          <mxGeometry relative="1" as="geometry">
            <mxPoint y="190" as="sourcePoint" />
            <mxPoint x="107" y="197" as="targetPoint" />
          </mxGeometry>
        </mxCell>
        <mxCell id="tAtHUdhInMRuZMIGd15e-52" value="" style="endArrow=none;html=1;rounded=0;entryX=0;entryY=0.5;entryDx=0;entryDy=0;exitX=1;exitY=0.3333333333333333;exitDx=0;exitDy=0;exitPerimeter=0;fillColor=#e51400;strokeColor=#B20000;" parent="1" source="tAtHUdhInMRuZMIGd15e-5" target="tAtHUdhInMRuZMIGd15e-21" edge="1">
          <mxGeometry relative="1" as="geometry">
            <mxPoint x="50" y="430" as="sourcePoint" />
            <mxPoint x="120" y="234" as="targetPoint" />
          </mxGeometry>
        </mxCell>
        <mxCell id="tAtHUdhInMRuZMIGd15e-54" value="" style="endArrow=none;html=1;rounded=0;entryX=0;entryY=0.5;entryDx=0;entryDy=0;exitX=1;exitY=0.3333333333333333;exitDx=0;exitDy=0;exitPerimeter=0;fillColor=#e51400;strokeColor=#B20000;" parent="1" source="tAtHUdhInMRuZMIGd15e-5" target="tAtHUdhInMRuZMIGd15e-22" edge="1">
          <mxGeometry relative="1" as="geometry">
            <mxPoint x="50" y="430" as="sourcePoint" />
            <mxPoint x="120" y="234" as="targetPoint" />
          </mxGeometry>
        </mxCell>
        <mxCell id="tAtHUdhInMRuZMIGd15e-55" value="" style="endArrow=none;html=1;rounded=0;entryX=0;entryY=0.5;entryDx=0;entryDy=0;exitX=1;exitY=0.3333333333333333;exitDx=0;exitDy=0;exitPerimeter=0;fillColor=#e51400;strokeColor=#B20000;" parent="1" source="tAtHUdhInMRuZMIGd15e-5" target="tAtHUdhInMRuZMIGd15e-23" edge="1">
          <mxGeometry relative="1" as="geometry">
            <mxPoint x="50" y="430" as="sourcePoint" />
            <mxPoint x="120" y="234" as="targetPoint" />
          </mxGeometry>
        </mxCell>
        <mxCell id="tAtHUdhInMRuZMIGd15e-56" value="" style="endArrow=none;html=1;rounded=0;entryX=0;entryY=0.5;entryDx=0;entryDy=0;exitX=1;exitY=0.3333333333333333;exitDx=0;exitDy=0;exitPerimeter=0;fillColor=#e51400;strokeColor=#B20000;" parent="1" source="tAtHUdhInMRuZMIGd15e-5" target="tAtHUdhInMRuZMIGd15e-24" edge="1">
          <mxGeometry relative="1" as="geometry">
            <mxPoint x="50" y="430" as="sourcePoint" />
            <mxPoint x="120" y="234" as="targetPoint" />
          </mxGeometry>
        </mxCell>
        <mxCell id="tAtHUdhInMRuZMIGd15e-57" value="" style="endArrow=none;html=1;rounded=0;entryX=0;entryY=0.5;entryDx=0;entryDy=0;exitX=1;exitY=0.3333333333333333;exitDx=0;exitDy=0;exitPerimeter=0;fillColor=#e51400;strokeColor=#B20000;" parent="1" source="tAtHUdhInMRuZMIGd15e-5" target="tAtHUdhInMRuZMIGd15e-25" edge="1">
          <mxGeometry relative="1" as="geometry">
            <mxPoint x="50" y="430" as="sourcePoint" />
            <mxPoint x="120" y="234" as="targetPoint" />
          </mxGeometry>
        </mxCell>
        <mxCell id="tAtHUdhInMRuZMIGd15e-61" value="" style="endArrow=none;html=1;rounded=0;exitX=1;exitY=0.3333333333333333;exitDx=0;exitDy=0;exitPerimeter=0;entryX=0;entryY=0.5;entryDx=0;entryDy=0;fillColor=#e3c800;strokeColor=#B09500;" parent="1" source="tAtHUdhInMRuZMIGd15e-9" target="tAtHUdhInMRuZMIGd15e-26" edge="1">
          <mxGeometry relative="1" as="geometry">
            <mxPoint x="56" y="870" as="sourcePoint" />
            <mxPoint x="110" y="934" as="targetPoint" />
          </mxGeometry>
        </mxCell>
        <mxCell id="tAtHUdhInMRuZMIGd15e-62" value="" style="endArrow=none;html=1;rounded=0;exitX=1;exitY=0.3333333333333333;exitDx=0;exitDy=0;exitPerimeter=0;entryX=0;entryY=0.5;entryDx=0;entryDy=0;fillColor=#e3c800;strokeColor=#B09500;" parent="1" source="tAtHUdhInMRuZMIGd15e-9" target="tAtHUdhInMRuZMIGd15e-27" edge="1">
          <mxGeometry relative="1" as="geometry">
            <mxPoint x="56" y="870" as="sourcePoint" />
            <mxPoint x="110" y="934" as="targetPoint" />
          </mxGeometry>
        </mxCell>
        <mxCell id="tAtHUdhInMRuZMIGd15e-63" value="" style="endArrow=none;html=1;rounded=0;exitX=1;exitY=0.3333333333333333;exitDx=0;exitDy=0;exitPerimeter=0;entryX=0;entryY=0.5;entryDx=0;entryDy=0;fillColor=#e3c800;strokeColor=#B09500;" parent="1" source="tAtHUdhInMRuZMIGd15e-9" target="tAtHUdhInMRuZMIGd15e-28" edge="1">
          <mxGeometry relative="1" as="geometry">
            <mxPoint x="56" y="870" as="sourcePoint" />
            <mxPoint x="110" y="934" as="targetPoint" />
          </mxGeometry>
        </mxCell>
        <mxCell id="tAtHUdhInMRuZMIGd15e-64" value="" style="endArrow=none;html=1;rounded=0;exitX=1;exitY=0.3333333333333333;exitDx=0;exitDy=0;exitPerimeter=0;entryX=0;entryY=0.5;entryDx=0;entryDy=0;fillColor=#e3c800;strokeColor=#B09500;" parent="1" source="tAtHUdhInMRuZMIGd15e-9" target="tAtHUdhInMRuZMIGd15e-29" edge="1">
          <mxGeometry relative="1" as="geometry">
            <mxPoint x="56" y="870" as="sourcePoint" />
            <mxPoint x="110" y="934" as="targetPoint" />
          </mxGeometry>
        </mxCell>
        <mxCell id="tAtHUdhInMRuZMIGd15e-66" value="" style="endArrow=none;html=1;rounded=0;entryX=1;entryY=0.5;entryDx=0;entryDy=0;exitX=0;exitY=0.3333333333333333;exitDx=0;exitDy=0;exitPerimeter=0;fillColor=#0050ef;strokeColor=#001DBC;" parent="1" source="tAtHUdhInMRuZMIGd15e-6" target="tAtHUdhInMRuZMIGd15e-37" edge="1">
          <mxGeometry width="50" height="50" relative="1" as="geometry">
            <mxPoint x="560" y="670" as="sourcePoint" />
            <mxPoint x="610" y="620" as="targetPoint" />
          </mxGeometry>
        </mxCell>
        <mxCell id="tAtHUdhInMRuZMIGd15e-68" value="" style="endArrow=none;html=1;rounded=0;exitX=0;exitY=0.3333333333333333;exitDx=0;exitDy=0;exitPerimeter=0;fillColor=#0050ef;strokeColor=#001DBC;entryX=1;entryY=0.5;entryDx=0;entryDy=0;" parent="1" source="tAtHUdhInMRuZMIGd15e-6" target="tAtHUdhInMRuZMIGd15e-39" edge="1">
          <mxGeometry width="50" height="50" relative="1" as="geometry">
            <mxPoint x="560" y="670" as="sourcePoint" />
            <mxPoint x="500" y="533" as="targetPoint" />
          </mxGeometry>
        </mxCell>
        <mxCell id="tAtHUdhInMRuZMIGd15e-69" value="" style="endArrow=none;html=1;rounded=0;entryX=1;entryY=0.5;entryDx=0;entryDy=0;exitX=0;exitY=0.3333333333333333;exitDx=0;exitDy=0;exitPerimeter=0;fillColor=#0050ef;strokeColor=#001DBC;" parent="1" source="tAtHUdhInMRuZMIGd15e-6" target="tAtHUdhInMRuZMIGd15e-40" edge="1">
          <mxGeometry width="50" height="50" relative="1" as="geometry">
            <mxPoint x="560" y="670" as="sourcePoint" />
            <mxPoint x="610" y="620" as="targetPoint" />
          </mxGeometry>
        </mxCell>
        <mxCell id="tAtHUdhInMRuZMIGd15e-71" value="" style="endArrow=none;html=1;rounded=0;entryX=1;entryY=0;entryDx=0;entryDy=0;exitX=0;exitY=0.3333333333333333;exitDx=0;exitDy=0;exitPerimeter=0;fillColor=#0050ef;strokeColor=#001DBC;" parent="1" source="tAtHUdhInMRuZMIGd15e-6" target="tAtHUdhInMRuZMIGd15e-41" edge="1">
          <mxGeometry width="50" height="50" relative="1" as="geometry">
            <mxPoint x="560" y="670" as="sourcePoint" />
            <mxPoint x="610" y="620" as="targetPoint" />
          </mxGeometry>
        </mxCell>
        <mxCell id="tAtHUdhInMRuZMIGd15e-72" value="" style="endArrow=none;html=1;rounded=0;entryX=1;entryY=1;entryDx=0;entryDy=0;exitX=0;exitY=0.3333333333333333;exitDx=0;exitDy=0;exitPerimeter=0;fillColor=#60a917;strokeColor=#2D7600;" parent="1" source="tAtHUdhInMRuZMIGd15e-4" target="tAtHUdhInMRuZMIGd15e-17" edge="1">
          <mxGeometry width="50" height="50" relative="1" as="geometry">
            <mxPoint x="720" y="230" as="sourcePoint" />
            <mxPoint x="770" y="180" as="targetPoint" />
          </mxGeometry>
        </mxCell>
        <mxCell id="tAtHUdhInMRuZMIGd15e-73" value="" style="endArrow=none;html=1;rounded=0;entryX=1;entryY=0.5;entryDx=0;entryDy=0;exitX=0;exitY=0.3333333333333333;exitDx=0;exitDy=0;exitPerimeter=0;fillColor=#60a917;strokeColor=#2D7600;" parent="1" source="tAtHUdhInMRuZMIGd15e-4" target="tAtHUdhInMRuZMIGd15e-16" edge="1">
          <mxGeometry width="50" height="50" relative="1" as="geometry">
            <mxPoint x="720" y="230" as="sourcePoint" />
            <mxPoint x="770" y="180" as="targetPoint" />
          </mxGeometry>
        </mxCell>
        <mxCell id="tAtHUdhInMRuZMIGd15e-75" value="" style="endArrow=none;html=1;rounded=0;entryX=1;entryY=0.5;entryDx=0;entryDy=0;exitX=0;exitY=0.3333333333333333;exitDx=0;exitDy=0;exitPerimeter=0;fillColor=#60a917;strokeColor=#2D7600;" parent="1" source="tAtHUdhInMRuZMIGd15e-4" target="tAtHUdhInMRuZMIGd15e-14" edge="1">
          <mxGeometry width="50" height="50" relative="1" as="geometry">
            <mxPoint x="720" y="230" as="sourcePoint" />
            <mxPoint x="770" y="180" as="targetPoint" />
          </mxGeometry>
        </mxCell>
        <mxCell id="tAtHUdhInMRuZMIGd15e-76" value="" style="endArrow=none;html=1;rounded=0;entryX=1;entryY=0.5;entryDx=0;entryDy=0;exitX=0;exitY=0.3333333333333333;exitDx=0;exitDy=0;exitPerimeter=0;fillColor=#60a917;strokeColor=#2D7600;" parent="1" source="tAtHUdhInMRuZMIGd15e-4" target="tAtHUdhInMRuZMIGd15e-18" edge="1">
          <mxGeometry width="50" height="50" relative="1" as="geometry">
            <mxPoint x="720" y="230" as="sourcePoint" />
            <mxPoint x="770" y="180" as="targetPoint" />
          </mxGeometry>
        </mxCell>
        <mxCell id="tAtHUdhInMRuZMIGd15e-77" value="" style="endArrow=none;html=1;rounded=0;entryX=1;entryY=0;entryDx=0;entryDy=0;exitX=0;exitY=0.3333333333333333;exitDx=0;exitDy=0;exitPerimeter=0;fillColor=#60a917;strokeColor=#2D7600;" parent="1" source="tAtHUdhInMRuZMIGd15e-4" target="tAtHUdhInMRuZMIGd15e-19" edge="1">
          <mxGeometry width="50" height="50" relative="1" as="geometry">
            <mxPoint x="720" y="230" as="sourcePoint" />
            <mxPoint x="770" y="180" as="targetPoint" />
          </mxGeometry>
        </mxCell>
        <mxCell id="tAtHUdhInMRuZMIGd15e-78" value="" style="endArrow=none;html=1;rounded=0;entryX=1;entryY=0.5;entryDx=0;entryDy=0;exitX=0;exitY=0.3333333333333333;exitDx=0;exitDy=0;exitPerimeter=0;fillColor=#60a917;strokeColor=#2D7600;" parent="1" source="tAtHUdhInMRuZMIGd15e-4" target="tAtHUdhInMRuZMIGd15e-20" edge="1">
          <mxGeometry width="50" height="50" relative="1" as="geometry">
            <mxPoint x="720" y="230" as="sourcePoint" />
            <mxPoint x="770" y="180" as="targetPoint" />
          </mxGeometry>
        </mxCell>
        <mxCell id="1LmpeOlybh4bAfhKXDsh-14" style="edgeStyle=orthogonalEdgeStyle;rounded=0;orthogonalLoop=1;jettySize=auto;html=1;entryX=0;entryY=0.5;entryDx=0;entryDy=0;" parent="1" source="tAtHUdhInMRuZMIGd15e-107" target="tAtHUdhInMRuZMIGd15e-18" edge="1">
          <mxGeometry relative="1" as="geometry" />
        </mxCell>
        <mxCell id="tAtHUdhInMRuZMIGd15e-107" value="Recorded Videos" style="ellipse;whiteSpace=wrap;html=1;" parent="1" vertex="1">
          <mxGeometry x="416" y="426" width="110" height="40" as="geometry" />
        </mxCell>
        <mxCell id="1LmpeOlybh4bAfhKXDsh-24" value="" style="endArrow=none;html=1;rounded=0;exitX=0;exitY=0.3333333333333333;exitDx=0;exitDy=0;exitPerimeter=0;fillColor=#0050ef;strokeColor=#001DBC;entryX=1;entryY=0;entryDx=0;entryDy=0;" parent="1" source="tAtHUdhInMRuZMIGd15e-6" target="tAtHUdhInMRuZMIGd15e-38" edge="1">
          <mxGeometry width="50" height="50" relative="1" as="geometry">
            <mxPoint x="782" y="730" as="sourcePoint" />
            <mxPoint x="720" y="790" as="targetPoint" />
          </mxGeometry>
        </mxCell>
        <mxCell id="4SOxO9wgs9pjHXPsYEH8-3" value="" style="endArrow=none;html=1;rounded=0;entryX=0;entryY=0.5;entryDx=0;entryDy=0;exitX=1;exitY=0.3333333333333333;exitDx=0;exitDy=0;exitPerimeter=0;fillColor=#e51400;strokeColor=#B20000;" parent="1" source="tAtHUdhInMRuZMIGd15e-5" target="4SOxO9wgs9pjHXPsYEH8-2" edge="1">
          <mxGeometry relative="1" as="geometry">
            <mxPoint x="50" y="430" as="sourcePoint" />
            <mxPoint x="120" y="234" as="targetPoint" />
          </mxGeometry>
        </mxCell>
        <mxCell id="4SOxO9wgs9pjHXPsYEH8-4" value="" style="endArrow=none;html=1;rounded=0;exitX=1;exitY=0.3333333333333333;exitDx=0;exitDy=0;exitPerimeter=0;fillColor=#e51400;strokeColor=#B20000;" parent="1" source="tAtHUdhInMRuZMIGd15e-5" edge="1">
          <mxGeometry relative="1" as="geometry">
            <mxPoint x="56" y="545" as="sourcePoint" />
            <mxPoint x="150" y="656" as="targetPoint" />
          </mxGeometry>
        </mxCell>
        <mxCell id="4SOxO9wgs9pjHXPsYEH8-5" value="" style="endArrow=none;html=1;rounded=0;entryX=1;entryY=0.5;entryDx=0;entryDy=0;exitX=0;exitY=0.3333333333333333;exitDx=0;exitDy=0;exitPerimeter=0;fillColor=#60a917;strokeColor=#2D7600;" parent="1" source="tAtHUdhInMRuZMIGd15e-4" target="4SOxO9wgs9pjHXPsYEH8-1" edge="1">
          <mxGeometry width="50" height="50" relative="1" as="geometry">
            <mxPoint x="720" y="230" as="sourcePoint" />
            <mxPoint x="770" y="180" as="targetPoint" />
          </mxGeometry>
        </mxCell>
        <mxCell id="-epkX59NLXgR2W7X0SHV-15" value="" style="endArrow=none;html=1;rounded=0;exitX=1;exitY=0.3333333333333333;exitDx=0;exitDy=0;exitPerimeter=0;entryX=0;entryY=0.5;entryDx=0;entryDy=0;fillColor=#647687;strokeColor=#314354;" edge="1" parent="1" source="tAtHUdhInMRuZMIGd15e-3" target="tAtHUdhInMRuZMIGd15e-12">
          <mxGeometry relative="1" as="geometry">
            <mxPoint y="190" as="sourcePoint" />
            <mxPoint x="107" y="197" as="targetPoint" />
          </mxGeometry>
        </mxCell>
      </root>
    </mxGraphModel>
  </diagram>
</mxfile>
